<?xml version="1.0" encoding="utf-8"?>
<!-- Generator: Adobe Illustrator 18.1.1, SVG Export Plug-In . SVG Version: 6.00 Build 0)  -->
<!DOCTYPE svg PUBLIC "-//W3C//DTD SVG 1.1//EN" "http://www.w3.org/Graphics/SVG/1.1/DTD/svg11.dtd">
<svg version="1.1" id="Your_Icon" xmlns="http://www.w3.org/2000/svg" xmlns:xlink="http://www.w3.org/1999/xlink" x="0px" y="0px"
	 viewBox="61.7 -40 59.2 68.2" enable-background="new 61.7 -40 59.2 68.2" xml:space="preserve">
<path d="M108.5-0.7c0,1.3-1,2.3-2.3,2.3c-1.3,0-2.3-1-2.3-2.3s1-2.3,2.3-2.3C107.5-3,108.5-2,108.5-0.7z"/>
<path d="M78.7-0.7c0,1.3-1,2.3-2.3,2.3c-1.3,0-2.3-1-2.3-2.3s1-2.3,2.3-2.3C77.7-3,78.7-2,78.7-0.7z"/>
<path d="M120.2-5.7l-10.8-32.5c-0.2-0.4-0.5-0.7-1-0.7h-0.1c-0.4,0-0.8,0.2-1,0.6l-6.3,13.1H81.5l-6.3-13.1c-0.2-0.4-0.6-0.6-1-0.6
	c-0.4,0-0.8,0.3-1,0.7L62.4-5.8c-0.2,0.4-0.1,0.8,0.2,1.1l27.3,31.8c0.3,0.4,0.9,0.6,1.4,0.6c0.5,0,1-0.2,1.4-0.6L120-4.6
	C120.2-4.9,120.3-5.4,120.2-5.7z M87,20.4C87,20.4,87,20.4,87,20.4c-0.3,0-0.6-0.1-0.8-0.4L64.9-4.8c-0.3-0.4-0.3-0.9-0.1-1.4
	c0.2-0.2,4.2-5.7,9.4-5.7c2.2,0,4.3,1,6.1,2.9c5.5,5.8,6.7,18.1,7.4,25.5c0.1,1,0.2,1.8,0.3,2.6c0,0.1,0,0.2,0,0.3
	C88.1,19.9,87.6,20.4,87,20.4z M117.7-4.8L96.4,20c-0.2,0.3-0.5,0.4-0.8,0.4c-0.1,0-0.3,0-0.4-0.1c-0.4-0.2-0.7-0.6-0.6-1.1
	c0.1-0.8,0.2-1.7,0.3-2.7c0.7-7.4,1.9-19.7,7.4-25.5c1.8-1.9,3.9-2.9,6.1-2.9c5.2,0,9.3,5.5,9.4,5.7C118-5.8,118-5.2,117.7-4.8z"/>
</svg>
