<svg xmlns="http://www.w3.org/2000/svg" xmlns:xlink="http://www.w3.org/1999/xlink" version="1.1" id="Layer_1" x="0px" y="0px" width="100px" height="100px" viewBox="5.0 -10.0 100.0 135.0" enable-background="new 0 0 100 100" xml:space="preserve">
<path fill="#000000" d="M26.856,81.434l-0.978-0.008c-0.151-0.002-3.761-0.054-7.411-1.896c-3.43-1.729-7.516-5.396-7.516-13.041  V48.45H4.093v-0.97c0-7.457,4.943-9.138,7.01-9.514c0.162-1.338,0.732-4.037,2.749-6.739c2.524-3.38,7.891-7.411,19.124-7.411  h33.386c0.462-2.195,2.142-5.251,6.245-5.251c4.126,0,5.779,3.064,6.214,5.246c1.046,0.088,2.917,0.348,4.803,1.118  c3.531,1.44,5.537,3.994,5.852,7.421h6.431l0.002,0.967c0.003,0.255-0.018,6.287-3.279,9.558c-1.354,1.359-3.062,2.048-5.07,2.048  c-6.147,0-8.717,1.765-8.717,12.701v23.808l-0.98-0.008c-0.153-0.002-3.795-0.054-7.482-1.894c-3.271-1.633-7.14-4.991-7.558-11.803  c-5.797,1.417-11.854,2.134-18.026,2.134c-0.002,0-0.003,0-0.003,0c-8.74,0-15.298-1.419-17.935-2.098V81.434z"/>
<text x="0.0" y="117.5" font-size="5.0" font-weight="bold" font-family="Helvetica Neue, Helvetica, Arial-Unicode, Arial, Sans-serif" fill="#000000">Created by Gilad Fried</text><text x="0.0" y="122.5" font-size="5.0" font-weight="bold" font-family="Helvetica Neue, Helvetica, Arial-Unicode, Arial, Sans-serif" fill="#000000">from the Noun Project</text></svg>